<svg xmlns="http://www.w3.org/2000/svg" aria-hidden="true" style="position:absolute;width:0;height:0;overflow:hidden">
<defs>
<symbol id="icon-enter" viewBox="0 0 15 15"><path fill="none"  stroke-width="1.5" stroke-linecap="round" stroke-linejoin="round" d="M9.75 0.75H10.65C11.9101 0.75 12.5402 0.75 13.0215 0.995235C13.4448 1.21095 13.789 1.55516 14.0048 1.97852C14.25 2.45982 14.25 3.08988 14.25 4.35V10.65C14.25 11.9101 14.25 12.5402 14.0048 13.0215C13.789 13.4448 13.4448 13.789 13.0215 14.0048C12.5402 14.25 11.9101 14.25 10.65 14.25H9.75M6 3.75L9.75 7.5M9.75 7.5L6 11.25M9.75 7.5L0.75 7.5"/></symbol>
<symbol id="icon-show" viewBox="0 0 20 20"><path d="M4 12s1.6-5 8-5m0 0c6.4 0 8 5 8 5m-8-5V4m6 1-2 2.5M6 5l2 2.5m7 5.5a3 3 0 1 1-6 0 3 3 0 0 1 6 0Z" stroke="#464455" stroke-linecap="round" stroke-linejoin="round"/></symbol>
<symbol id="icon-hide" viewBox="0 0 20 20"><path d="M4 10s1.6 5 8 5m0 0c6.4 0 8-5 8-5m-8 5v3m6-1-2-2.5M6 17l2-2.5" stroke="#464455" stroke-linecap="round" stroke-linejoin="round"/></symbol>
</defs>
</svg>