<svg xmlns="http://www.w3.org/2000/svg" aria-hidden="true" style="position:absolute;width:0;height:0;overflow:hidden">
<defs>
<symbol id="icon-enter" viewBox="0 0 15 15"><path fill="none"  stroke-width="1.5" stroke-linecap="round" stroke-linejoin="round" d="M9.75 0.75H10.65C11.9101 0.75 12.5402 0.75 13.0215 0.995235C13.4448 1.21095 13.789 1.55516 14.0048 1.97852C14.25 2.45982 14.25 3.08988 14.25 4.35V10.65C14.25 11.9101 14.25 12.5402 14.0048 13.0215C13.789 13.4448 13.4448 13.789 13.0215 14.0048C12.5402 14.25 11.9101 14.25 10.65 14.25H9.75M6 3.75L9.75 7.5M9.75 7.5L6 11.25M9.75 7.5L0.75 7.5"/></symbol>
<symbol id="icon-show" viewBox="0 0 20 20"><path d="M4 12s1.6-5 8-5m0 0c6.4 0 8 5 8 5m-8-5V4m6 1-2 2.5M6 5l2 2.5m7 5.5a3 3 0 1 1-6 0 3 3 0 0 1 6 0Z" stroke-linecap="round" stroke-linejoin="round" /></symbol>
<symbol id="icon-hide" viewBox="0 0 20 20"><path d="M4 10s1.6 5 8 5m0 0c6.4 0 8-5 8-5m-8 5v3m6-1-2-2.5M6 17l2-2.5" stroke-linecap="round" stroke-linejoin="round"/></symbol>
<symbol id ='star' viewBox="0 0 14 14" ><path  d="M10.8241 14C10.6578 14 10.4922 13.9466 10.3498 13.8403L7.00009 11.3293L3.65039 13.8403C3.51161 13.9447 3.34483 14.0005 3.17386 13.9999C3.00289 13.9993 2.83648 13.9422 2.69839 13.8369C2.56018 13.7321 2.45708 13.5845 2.40378 13.4149C2.35048 13.2454 2.34969 13.0626 2.40151 12.8925L3.6508 8.67793L0.331167 6.23275C0.193589 6.12662 0.0914162 5.97796 0.0390997 5.8078C-0.0132167 5.63764 -0.0130282 5.45459 0.0396388 5.28455C0.0927213 5.11492 0.195461 4.96702 0.333337 4.86175C0.471213 4.75648 0.637253 4.69916 0.807989 4.6979L4.91945 4.69144L6.22844 0.58142C6.28246 0.412106 6.38607 0.264848 6.5246 0.160499C6.66312 0.0561503 6.82954 0 7.00029 0C7.17104 0 7.33746 0.0561503 7.47599 0.160499C7.61451 0.264848 7.71812 0.412106 7.77214 0.58142L9.0589 4.69144L13.1914 4.6979C13.3623 4.69891 13.5286 4.75619 13.6666 4.86162C13.8046 4.96705 13.9073 5.11526 13.9602 5.2852C14.013 5.45513 14.0133 5.63815 13.9609 5.80825C13.9086 5.97835 13.8063 6.12688 13.6686 6.23275L10.349 8.67793L11.5982 12.8925C11.6502 13.0625 11.6495 13.2453 11.5963 13.4149C11.543 13.5844 11.44 13.7321 11.3018 13.8369C11.1633 13.9431 10.9959 14.0002 10.8241 14Z" /></symbol>
<symbol id="icon-arrow-up" viewBox="0 0 20 20"><path d="M14.756 8.578l-4.167-4.167c-0.326-0.326-0.853-0.326-1.178 0l-4.167 4.167c-0.326 0.326-0.326 0.853 0 1.178s0.853 0.326 1.178 0l3.578-3.577 3.577 3.577c0.326 0.326 0.853 0.326 1.178 0s0.326-0.853 0-1.178zM14.756 14.411l-4.167-4.167c-0.326-0.326-0.853-0.326-1.178 0l-4.167 4.167c-0.326 0.326-0.326 0.853 0 1.178s0.853 0.326 1.178 0l3.578-3.578 3.577 3.578c0.326 0.326 0.853 0.326 1.178 0s0.326-0.853 0-1.178z"></path></symbol>
<symbol id='arrow-right-slider' viewBox="0 0 39 6"><path d="M33.865 1.10971L35.7445 2.38771L0 2.38871L0 3.38871L35.5205 3.38771L33.75 4.40522L34.248 5.27222L38.3225 2.93122L34.4275 0.282713L33.865 1.10971Z" /></symbol>
<symbol id='arrow-left-slider' viewBox="0 0 39 6"><path d="M5.03685 4.66763L3.15734 3.38963L38.9019 3.38863V2.38863L3.38134 2.38963L5.15184 1.37213L4.65384 0.505127L0.579338 2.84613L4.47435 5.49463L5.03685 4.66763Z" /></symbol>
<symbol id="icon-input-success" viewBox="0 0 20 20"><path fill="#3cbc81" style="fill: var(--color1, #3cbc81)" d="M8.6 11.8l-2.175-2.175c-0.183-0.183-0.412-0.271-0.687-0.262s-0.505 0.104-0.688 0.287-0.275 0.417-0.275 0.7c0 0.283 0.092 0.517 0.275 0.7l2.85 2.85c0.183 0.183 0.417 0.275 0.7 0.275s0.517-0.092 0.7-0.275l5.675-5.675c0.183-0.183 0.271-0.413 0.263-0.688s-0.105-0.504-0.288-0.687-0.417-0.275-0.7-0.275c-0.283 0-0.517 0.092-0.7 0.275l-4.95 4.95zM10 20c-1.383 0-2.683-0.263-3.9-0.788s-2.275-1.237-3.175-2.137-1.612-1.958-2.137-3.175c-0.525-1.217-0.788-2.517-0.788-3.9s0.263-2.683 0.788-3.9c0.525-1.217 1.237-2.275 2.137-3.175s1.958-1.613 3.175-2.138c1.217-0.525 2.517-0.787 3.9-0.787s2.683 0.262 3.9 0.787c1.217 0.525 2.275 1.238 3.175 2.138s1.612 1.958 2.137 3.175c0.525 1.217 0.788 2.517 0.788 3.9s-0.263 2.683-0.788 3.9c-0.525 1.217-1.237 2.275-2.137 3.175s-1.958 1.612-3.175 2.137c-1.217 0.525-2.517 0.788-3.9 0.788zM10 18c2.217 0 4.104-0.779 5.663-2.337s2.337-3.446 2.337-5.663c0-2.217-0.779-4.104-2.337-5.663s-3.446-2.337-5.663-2.337c-2.217 0-4.104 0.779-5.662 2.337s-2.338 3.446-2.338 5.663c0 2.217 0.779 4.104 2.338 5.663s3.445 2.337 5.662 2.337z"></path></symbol>
<symbol id="icon-input-error" viewBox="0 0 20 20"><path fill="#e74a3b" style="fill: var(--color1, #e74a3b)" d="M9 13h2v2h-2v-2zM9 5h2v6h-2v-6zM9.99 0c-5.52 0-9.99 4.48-9.99 10s4.47 10 9.99 10c5.53 0 10.010-4.48 10.010-10s-4.48-10-10.010-10zM10 18c-4.42 0-8-3.58-8-8s3.58-8 8-8 8 3.58 8 8-3.58 8-8 8z"></path></symbol>
</defs>
</svg>